<svg xmlns="http://www.w3.org/2000/svg" xmlns:xlink="http://www.w3.org/1999/xlink" id="Layer_1" x="0" y="0" version="1.1" viewBox="0 0 1000 175" style="enable-background:new 0 0 1000 175" xml:space="preserve"><style type="text/css">.st0{fill:url(#SVGID_1_)}.st3{fill:#58c142}</style><g><path d="M339.7,20.6h26.5l30.9,100.8l33.5-100.8h22l33.5,100.8l31.2-100.8h26.5L497.9,156h-23.8L441.9,55.4L409.1,156 h-23.8L339.7,20.6z" class="st3"/><path d="M693.8,20.6V156h-25.9V133c-10.5,16.2-27.2,26.2-47.9,26.2c-35.9,0-62.3-29.3-62.3-71 c0-41.4,26.5-70.7,62.3-70.7c20.7,0,37.5,10,47.9,26.2v-23H693.8z M667.9,88.2c0-28.3-17.3-48.2-41.9-48.2 c-24.6,0-42.2,19.9-42.2,48.2c0,28.3,17.6,48.5,42.2,48.5C650.6,136.6,667.9,116.5,667.9,88.2z" class="st3"/><path d="M713.8,20.6h27.8l42.2,105.3l41.4-105.3h28L796,156h-24.4L713.8,20.6z" class="st3"/><path d="M970.7,122.2l15.2,16c-11.8,12.8-35.6,21-54.7,21c-37.5,0-69.9-29.6-69.9-71.2c0-40.6,30.6-70.5,68.1-70.5 c41.4,0,65.5,30.9,65.5,79.1H886.6c3.1,23.8,19.9,41.1,44,41.1C945.3,137.7,962.3,131.1,970.7,122.2z M886.9,77.5h82.8 c-2.6-21.7-16.2-38.5-39.8-38.5C908.1,38.9,890.8,54.1,886.9,77.5z" class="st3"/></g><g><linearGradient id="SVGID_1_" x1="5.213" x2="240.448" y1="58.909" y2="58.909" gradientUnits="userSpaceOnUse"><stop offset=".142" style="stop-color:#1f4d22"/><stop offset=".866" style="stop-color:#418d31"/></linearGradient><path d="M83.6,80.8c-12.3,0-19.1,8-22.8,25.9l-55.6-8C12,40.1,34.8,11.7,79.9,11.7C113.3,11.7,146,37,162,37 c12.4,0,19.1-8.6,22.8-25.9l55.6,8c-6.2,58.7-29.6,87.1-74.7,87.1C131.8,106.1,100.3,80.8,83.6,80.8z" class="st0"/></g><g><linearGradient id="SVGID_00000145018229965941010500000002424778669397199792_" x1="20.917" x2="256.152" y1="116.091" y2="116.091" gradientUnits="userSpaceOnUse"><stop offset=".222" style="stop-color:#418d31"/><stop offset=".773" style="stop-color:#58c142"/></linearGradient><path style="fill:url(#SVGID_00000145018229965941010500000002424778669397199792_)" d="M99.3,138c-12.3,0-19.1,8-22.8,25.9 l-55.6-8c6.8-58.6,29.6-87.1,74.7-87.1c33.3,0,66.1,25.3,82.1,25.3c12.4,0,19.1-8.6,22.8-25.9l55.6,8 c-6.2,58.7-29.6,87.1-74.7,87.1C147.5,163.3,116,138,99.3,138z"/></g></svg>