<svg xmlns="http://www.w3.org/2000/svg" xmlns:xlink="http://www.w3.org/1999/xlink" id="Layer_1" x="0" y="0" version="1.1" viewBox="0 0 1024 1024" style="enable-background:new 0 0 1024 1024" xml:space="preserve"><style type="text/css">.st0{fill:url(#SVGID_1_)}</style><rect width="1047.1" height="1047.1" x="-11.5" y="-11.5"/><g><g><linearGradient id="SVGID_1_" x1="143.988" x2="833.951" y1="428.14" y2="428.14" gradientUnits="userSpaceOnUse"><stop offset=".142" style="stop-color:#1f4d22"/><stop offset=".866" style="stop-color:#418d31"/></linearGradient><path d="M374,492.4c-36.2,0-56.1,23.5-67,76.1l-163-23.6c19.9-172,86.9-255.3,219.1-255.3 c97.8,0,193.8,74.3,240.9,74.3c36.2,0,56.1-25.4,67-76.1l163,23.5c-18.1,172-86.9,255.4-219.1,255.4 C515.2,566.7,422.9,492.4,374,492.4z" class="st0"/></g><g><linearGradient id="SVGID_00000066484680017610105720000010460662955817103787_" x1="190.049" x2="880.013" y1="595.86" y2="595.86" gradientUnits="userSpaceOnUse"><stop offset=".222" style="stop-color:#418d31"/><stop offset=".773" style="stop-color:#58c142"/></linearGradient><path style="fill:url(#SVGID_00000066484680017610105720000010460662955817103787_)" d="M420,660.1c-36.2,0-56.1,23.5-67,76.1 l-163-23.6c19.9-172,86.9-255.3,219.1-255.3c97.8,0,193.8,74.3,240.9,74.3c36.2,0,56.1-25.4,67-76.1L880,479 c-18.1,172-86.9,255.4-219.1,255.4C561.3,734.4,468.9,660.1,420,660.1z"/></g></g></svg>