<svg xmlns="http://www.w3.org/2000/svg" xmlns:svg="http://www.w3.org/2000/svg" id="svg5" width="1024" height="1024" fill="none" version="1.1" viewBox="0 0 1024 1024"><g id="g5" transform="translate(-2.055,152.9587)"><path id="path1" fill="url(#paint0_linear_1814_3217)" d="m 328.87,332.526 c -48.38,0 -75.126,31.508 -89.679,102.007 L 20.5,403.025 C 47.2464,172.231 136.925,60.3787 314.317,60.3787 c 131.371,0 259.99,99.6433 322.923,99.6433 48.772,0 75.125,-33.871 89.678,-102.0064 L 945.609,89.5233 C 921.223,320.711 829.184,432.563 651.793,432.563 518.454,432.17 394.556,332.526 328.87,332.526 Z" style="fill:url(#paint0_linear_1814_3217)"/><path id="path2" fill="url(#paint1_linear_1814_3217)" d="m 390.87,558.061 c -48.38,0 -75.126,31.508 -89.679,102.006 L 82.5,628.559 c 26.746,-230.794 116.425,-343.04 293.817,-343.04 130.978,0 259.99,99.643 322.922,99.643 48.773,0 75.126,-33.87 89.679,-102.006 l 218.692,31.508 c -24.387,231.188 -116.426,343.04 -293.817,343.04 -133.339,0 -257.237,-99.643 -322.923,-99.643 z" style="fill:url(#paint1_linear_1814_3217)"/></g><defs id="defs5"><linearGradient id="paint0_linear_1814_3217" x1="20.55" x2="945.797" y1="246.309" y2="246.309" gradientUnits="userSpaceOnUse"><stop id="stop2" offset=".142" stop-color="#1F4D22"/><stop id="stop3" offset=".866" stop-color="#418D31"/></linearGradient><linearGradient id="paint1_linear_1814_3217" x1="82.567" x2="1007.81" y1="471.774" y2="471.774" gradientUnits="userSpaceOnUse"><stop id="stop4" offset=".222" stop-color="#418D31"/><stop id="stop5" offset=".773" stop-color="#58C142"/></linearGradient></defs></svg>