<svg xmlns="http://www.w3.org/2000/svg" xmlns:svg="http://www.w3.org/2000/svg" id="Layer_1" width="600" height="500" x="0" y="0" version="1.1" viewBox="0 0 600 500" xml:space="preserve"><style id="style1" type="text/css"/><path id="path1" d="m 218.2,183.2 c 51,0 99.3,21.9 138.2,39.5 21.2,9.6 43.1,19.5 53.4,19.5 8,0 21.5,0 30.5,-42.1 l 4.6,-21.3 21.6,3.1 66.7,9.6 C 544.4,163.6 552,129.9 556.1,90.3 L 426.4,71.7 C 417.8,112 401.9,132.2 373.1,132.2 335.7,132.2 259.3,73.1 181.5,73.1 76.4,73.1 23.2,139.4 7.3,276.2 l 46,6.7 c 7.6,-15.6 16.4,-29.3 26.4,-41.2 32.9,-38.8 79.5,-58.5 138.5,-58.5 z"/><path id="path2" d="m 409.8,265.6 c -37.4,0 -113.8,-59.1 -191.6,-59.1 -105.1,0 -158.4,66.3 -174.3,203.1 l 129.6,18.7 c 8.7,-41.8 24.5,-60.5 53.3,-60.5 38.9,0 112.3,59.1 191.6,59.1 105.1,0 159.9,-66.3 174.3,-203.1 L 463.1,205.1 c -8.7,40.3 -24.5,60.5 -53.3,60.5 z"/></svg>